<?xml version="1.0" encoding="utf-8"?>
<!-- Generator: Adobe Illustrator 16.0.3, SVG Export Plug-In . SVG Version: 6.00 Build 0)  -->
<!DOCTYPE svg PUBLIC "-//W3C//DTD SVG 1.1//EN" "http://www.w3.org/Graphics/SVG/1.1/DTD/svg11.dtd">
<svg version="1.1" id="レイヤー_1" xmlns="http://www.w3.org/2000/svg" xmlns:xlink="http://www.w3.org/1999/xlink" x="0px"
	 y="0px" width="1509.767px" height="283.861px" viewBox="0 0 1509.767 283.861"
	 style="enable-background:new 0 0 1509.767 283.861;" xml:space="preserve">
<linearGradient id="SVGID_1_" gradientUnits="userSpaceOnUse" x1="763.4014" y1="266.4717" x2="763.4014" y2="65.5498">
	<stop  offset="0" style="stop-color:#FFFFFF"/>
	<stop  offset="1" style="stop-color:#D4DDF1"/>
</linearGradient>
<path style="fill:url(#SVGID_1_);stroke:#FFFFFF;stroke-width:4.8045;stroke-miterlimit:10;" d="M1477.634,65.549h-392.418H49.169
	h-29.73V93.5v145.02v27.951h29.73h1036.047h392.418c16.42,0,29.73-12.514,29.73-27.951V93.5
	C1507.364,78.064,1494.054,65.549,1477.634,65.549z"/>
<path style="fill:#DCDFF0;stroke:#514B9C;stroke-width:8.8466;stroke-miterlimit:10;" d="M407.295,28.571
	c3.676-4.483,3.966-8.178,0.587-8.178H25.508c-3.353,0-6.07,3.681-6.07,8.146v47.099c0,3.556,2.369,6.396,5.292,6.398l333.222,0.209
	c2.943,0.003,7.664-2.845,10.588-6.41L407.295,28.571z"/>
<g>
	<circle style="fill:#F0EFF7;stroke:#514B9C;stroke-width:4.8116;stroke-miterlimit:10;" cx="50.588" cy="50.588" r="48.183"/>
	<path style="fill:#F5F5FA;stroke:#514B9C;stroke-width:3.2077;stroke-miterlimit:10;" d="M85.68,43.678
		c-2.794-0.697-15.488,14.106-15.488,14.106c-0.444,0.515-0.227,1.084,0.483,1.262l5.233,1.307
		c-2.609,8.051-10.094,14.292-19.473,16.158l-1.139-33.098h3.626l0.074,3.809c-0.04,0.611,0.459,0.935,1.102,0.715
		c0,0,9.813-5.981,9.813-8.395c0-2.994-10.006-7.944-10.006-7.944c-0.621-0.219-1.155,0.102-1.193,0.714l0.072,3.81h-3.739
		l-0.176-5.137c3.14-1.518,5.3-4.644,5.3-8.266c0-5.106-4.291-9.247-9.58-9.247c-5.287,0-9.575,4.141-9.575,9.247
		c0,3.619,2.158,6.747,5.293,8.266l-0.188,5.137h-3.865l-0.07-3.809c0.035-0.61-0.46-0.934-1.104-0.716c0,0-9.813,5.984-9.813,8.397
		c0,2.993,10.009,7.941,10.009,7.941c0.616,0.221,1.154-0.1,1.193-0.711l-0.077-3.812h3.46l-1.208,33.08
		c-9.335-1.893-16.772-8.117-19.373-16.141l5.233-1.307c0.708-0.178,0.926-0.747,0.482-1.262c0,0-12.694-14.804-15.486-14.106
		s-4.673,19.14-4.673,19.14c-0.065,0.644,0.461,1.025,1.173,0.849l4.815-1.203c3.625,11.19,14.294,19.779,27.545,21.858v0.002
		l6.226,3.381l5.083-3.222c13.779-1.751,24.958-10.511,28.691-22.02l4.817,1.203c0.71,0.177,1.234-0.205,1.169-0.849
		C90.349,62.818,88.471,44.375,85.68,43.678z M50.588,18.958c2.151,0,3.896,1.685,3.896,3.762c0,2.078-1.744,3.763-3.896,3.763
		c-2.149,0-3.894-1.685-3.894-3.763C46.695,20.642,48.439,18.958,50.588,18.958z"/>
</g>
<g>
	<g>
		<path style="fill:#DA3B2B;stroke:#1D2A73;stroke-width:6;stroke-miterlimit:10;" d="M135.155,49.11
			c-0.885-0.572-1.782-1.093-2.692-1.562c-0.911-0.468-1.808-0.988-2.692-1.561c-0.104-0.156-0.169-0.313-0.195-0.468
			c-0.026-0.156-0.039-0.338-0.039-0.547c0.052-0.156,0.156-0.312,0.312-0.468c0.156-0.156,0.312-0.26,0.468-0.313h0.703
			c0.884,0.469,1.781,0.95,2.692,1.443c0.91,0.495,1.782,1.054,2.614,1.679c0.104,0.155,0.169,0.312,0.195,0.468
			c0.025,0.156,0.039,0.339,0.039,0.546c-0.053,0.156-0.156,0.313-0.312,0.469c-0.156,0.156-0.313,0.26-0.468,0.313H135.155z
			 M130.863,65.848l-0.858-0.468c-0.104-0.156-0.169-0.313-0.195-0.469c-0.026-0.155-0.039-0.338-0.039-0.546
			c0.781-1.561,1.586-3.128,2.419-4.702c0.832-1.573,1.69-3.114,2.575-4.623c0.156-0.104,0.312-0.169,0.468-0.195
			c0.156-0.025,0.338-0.039,0.546-0.039c0.156,0.053,0.312,0.156,0.468,0.313c0.156,0.155,0.259,0.312,0.312,0.468v0.702
			c-0.78,1.561-1.587,3.103-2.419,4.624s-1.665,3.063-2.497,4.624L130.863,65.848z M136.481,39.706
			c-0.833-0.571-1.665-1.183-2.497-1.834c-0.833-0.649-1.691-1.261-2.575-1.833c-0.104-0.156-0.169-0.313-0.195-0.469
			c-0.026-0.156-0.039-0.338-0.039-0.546c0.052-0.156,0.156-0.313,0.312-0.469c0.156-0.156,0.313-0.26,0.468-0.312h0.781
			c0.884,0.572,1.756,1.157,2.614,1.756s1.639,1.34,2.341,2.224v0.624c-0.052,0.156-0.156,0.313-0.312,0.469
			s-0.312,0.26-0.468,0.312L136.481,39.706z M140.032,60.152l-0.858-0.508c-0.104-0.155-0.169-0.312-0.195-0.468
			s-0.039-0.338-0.039-0.546c0.833-1.665,1.665-3.343,2.498-5.034c0.832-1.69,1.69-3.368,2.575-5.033h-0.468
			c-0.677,0.156-1.379,0.234-2.107,0.234c-0.729,0-1.458,0.026-2.185,0.078c-0.156-0.052-0.313-0.156-0.468-0.313
			c-0.156-0.156-0.26-0.313-0.313-0.468V47.47l0.313-0.546c1.04-0.26,2.146-0.416,3.316-0.468c1.17-0.053,2.302-0.156,3.395-0.313
			c0.26-0.469,0.52-0.937,0.78-1.404c0.26-0.469,0.442-0.963,0.546-1.483c-0.468-0.104-0.976-0.156-1.521-0.156
			c-0.546,0-1.08,0-1.6,0l-0.702,0.078c-0.156-0.052-0.312-0.156-0.468-0.312c-0.156-0.156-0.26-0.313-0.312-0.469v-0.702
			l0.78-0.858h3.2l1.795,0.156l1.249-2.614h-1.093l-2.809,0.078l-2.263-0.234l-0.858,0.078c-0.156-0.052-0.312-0.156-0.468-0.313
			s-0.26-0.312-0.312-0.468v-0.624c0.052-0.208,0.168-0.377,0.351-0.508c0.182-0.13,0.351-0.247,0.507-0.351l1.482-0.078
			c0.676,0.155,1.378,0.233,2.107,0.233c0.728,0,1.457,0,2.185,0l2.263-0.078c0.312-0.884,0.676-1.729,1.093-2.536
			c0.416-0.806,0.962-1.573,1.639-2.302c0.156-0.104,0.312-0.169,0.468-0.195c0.156-0.025,0.338-0.039,0.546-0.039
			c0.156,0.053,0.312,0.156,0.468,0.313c0.156,0.156,0.259,0.313,0.312,0.468v0.703c-0.417,0.521-0.794,1.066-1.132,1.639
			c-0.338,0.572-0.611,1.17-0.819,1.795l5.658,0.155l1.171-0.077c0.156,0.052,0.312,0.155,0.468,0.312
			c0.156,0.156,0.259,0.313,0.312,0.469v0.624c-0.053,0.156-0.156,0.313-0.312,0.468c-0.156,0.156-0.313,0.261-0.468,0.313
			l-1.015,0.156h-3.239c-0.521-0.104-1.053-0.156-1.6-0.156s-1.08,0-1.6,0l-0.468,0.078c-0.156,0.521-0.351,1.008-0.585,1.463
			c-0.234,0.456-0.456,0.917-0.663,1.386l0.936,0.155h3.2c0.468,0.156,0.981,0.209,1.542,0.156c0.559-0.052,1.046,0.078,1.463,0.391
			c0.104,0.156,0.169,0.312,0.195,0.468c0.025,0.156,0.039,0.339,0.039,0.547c-0.053,0.155-0.156,0.312-0.313,0.468
			c-0.156,0.156-0.312,0.261-0.468,0.313l-1.99,0.078l-1.405-0.156v0.156l1.717,2.419c1.274,0,2.523,0.026,3.746,0.078
			c1.222,0.053,2.38,0.234,3.473,0.546c0.104,0.156,0.169,0.313,0.195,0.469c0.026,0.155,0.039,0.338,0.039,0.546
			c-0.052,0.156-0.156,0.313-0.312,0.468c-0.156,0.156-0.312,0.261-0.468,0.313l-0.78,0.078l-4.136-0.234v0.234
			c1.145,1.613,2.328,3.199,3.551,4.761c1.223,1.561,2.224,3.226,3.004,4.994c-0.052,0.156-0.156,0.312-0.312,0.468
			s-0.312,0.261-0.468,0.313h-0.624c-1.405-1.717-2.79-3.498-4.156-5.346c-1.366-1.847-2.699-3.681-4-5.502l-4.526-0.078
			l-2.966,0.234c-1.041,1.821-2.029,3.694-2.965,5.619s-1.925,3.823-2.965,5.696L140.032,60.152z M142.451,67.721
			c-0.156-0.053-0.312-0.156-0.468-0.312c-0.156-0.156-0.26-0.313-0.312-0.469v-0.702c0.728-1.197,1.586-2.328,2.575-3.395
			c0.988-1.066,1.82-2.211,2.497-3.434h-0.468l-1.482,0.078l-1.249-0.078l-0.703,0.078c-0.156-0.052-0.312-0.156-0.468-0.313
			c-0.156-0.156-0.26-0.313-0.312-0.469v-0.624l0.312-0.546c0.313-0.313,0.676-0.455,1.093-0.43
			c0.416,0.026,0.832,0.039,1.249,0.039l1.483,0.078l2.029-0.39l1.405-2.81c-0.78-0.052-1.561-0.078-2.341-0.078
			s-1.482-0.208-2.107-0.624c-0.104-0.156-0.169-0.313-0.195-0.469s-0.039-0.338-0.039-0.546c0.052-0.156,0.156-0.313,0.312-0.469
			c0.156-0.155,0.312-0.26,0.468-0.312h0.78c1.613,0.156,3.239,0.299,4.877,0.429c1.639,0.131,3.161,0.533,4.565,1.21
			c0.156,0.156,0.234,0.325,0.234,0.507c0,0.183,0,0.378,0,0.586c-0.053,0.155-0.156,0.312-0.313,0.468
			c-0.156,0.156-0.312,0.261-0.468,0.313h-0.625c-0.417-0.104-0.833-0.247-1.249-0.43c-0.417-0.182-0.858-0.272-1.327-0.272
			l-1.249,2.575h4.76c0.416,0.104,0.864,0.143,1.346,0.116c0.481-0.025,0.903,0.117,1.268,0.43c0.156,0.156,0.234,0.338,0.234,0.546
			c0,0.209,0,0.417,0,0.625c-0.052,0.155-0.156,0.312-0.312,0.468s-0.312,0.261-0.468,0.313l-0.624,0.078
			c-0.651-0.208-1.327-0.313-2.029-0.313c-0.702,0-1.392,0-2.068,0v0.156c0.937,0.702,1.795,1.496,2.575,2.38
			c0.78,0.885,1.574,1.743,2.38,2.575v0.156l1.17,0.78c0.104,0.156,0.195,0.338,0.273,0.546s0.091,0.442,0.039,0.703
			c-0.052,0.155-0.156,0.312-0.312,0.468c-0.156,0.156-0.312,0.26-0.468,0.313h-0.702l-0.703-0.469
			c-1.17-1.196-2.354-2.432-3.551-3.707c-1.197-1.273-2.445-2.419-3.746-3.434l-0.078-0.468h-0.39
			c-0.729,1.535-1.678,2.952-2.848,4.253c-1.171,1.301-2.25,2.653-3.239,4.058c-0.156,0.104-0.312,0.169-0.468,0.195
			C142.841,67.708,142.659,67.721,142.451,67.721z M152.596,45.988c-0.312-0.468-0.638-0.91-0.976-1.326
			c-0.338-0.416-0.689-0.833-1.053-1.249h-1.171l-1.17,2.653h1.405l2.185-0.078l0.702,0.078L152.596,45.988z"/>
		<path style="fill:#DA3B2B;stroke:#1D2A73;stroke-width:6;stroke-miterlimit:10;" d="M177.724,66.004
			c-0.417-0.053-0.8-0.183-1.151-0.39c-0.352-0.209-0.683-0.469-0.995-0.781c-0.78-0.78-1.366-1.639-1.756-2.575
			s-0.585-1.963-0.585-3.082c0.104-1.612,0.494-3.121,1.171-4.526c0.676-1.404,1.625-2.705,2.848-3.901
			c0.728-0.677,1.496-1.301,2.302-1.873c0.806-0.572,1.651-1.015,2.536-1.327v-0.156l-0.468-6.555h-0.546l-2.107,0.313h-3.707
			l-1.327,0.155c-0.156-0.052-0.313-0.155-0.468-0.312c-0.156-0.156-0.26-0.313-0.313-0.469v-0.663l0.313-0.546
			c0.208-0.26,0.481-0.391,0.819-0.391c0.338,0,0.663-0.025,0.976-0.078h3.707l2.575-0.312v-1.483l-0.078-0.078v-4.447
			c0.052-0.208,0.117-0.416,0.195-0.625c0.078-0.208,0.195-0.39,0.351-0.546c0.156-0.156,0.325-0.234,0.507-0.234
			c0.182,0,0.377,0,0.585,0c0.156,0.053,0.312,0.156,0.468,0.313c0.156,0.156,0.259,0.312,0.312,0.468v0.625l-0.156,0.312v4.136
			l0.078,1.405h0.312l1.561-0.234h3.122l1.17,0.156h3.902l3.473-0.313c0.208,0.104,0.377,0.222,0.507,0.352
			c0.13,0.13,0.247,0.299,0.351,0.507v0.625c-0.052,0.155-0.156,0.318-0.312,0.487c-0.156,0.17-0.313,0.28-0.468,0.332l-3.551,0.312
			h-3.902l-1.17-0.156h-3.122l-1.795,0.234v0.78l0.39,5.307h0.468l2.107-0.468h3.824l0.468,0.078c0-0.521,0.026-1.027,0.078-1.522
			c0.052-0.493,0.234-0.949,0.546-1.365c0.156-0.104,0.312-0.169,0.468-0.195c0.156-0.025,0.337-0.039,0.546-0.039
			c0.208,0.104,0.377,0.222,0.507,0.352c0.13,0.13,0.247,0.299,0.351,0.507v0.78c-0.156,0.313-0.234,0.664-0.234,1.054
			c0,0.391,0,0.768,0,1.132c0.937,0.104,1.788,0.403,2.556,0.897c0.767,0.494,1.515,1.054,2.244,1.678
			c1.196,1.457,1.977,3.043,2.341,4.76c0.364,1.717,0.494,3.512,0.39,5.385c-0.208,0.755-0.326,1.535-0.351,2.342
			c-0.026,0.807-0.222,1.521-0.585,2.146c-0.156,0.104-0.312,0.169-0.468,0.195c-0.156,0.025-0.338,0.039-0.546,0.039
			c-0.156-0.053-0.312-0.156-0.468-0.313c-0.156-0.156-0.26-0.312-0.312-0.468l-0.078-0.625c0.104-0.832,0.234-1.658,0.39-2.478
			c0.156-0.819,0.208-1.671,0.156-2.556c0-1.404-0.195-2.705-0.585-3.901s-1.041-2.315-1.951-3.355
			c-0.521-0.364-1.054-0.689-1.6-0.976c-0.546-0.286-1.131-0.481-1.756-0.586c-0.833,2.342-1.886,4.553-3.16,6.634
			c-1.275,2.081-2.719,4.097-4.331,6.048l0.156,1.639c-0.052,0.156-0.156,0.313-0.312,0.468c-0.156,0.156-0.312,0.261-0.468,0.313
			h-0.624l-0.703-0.624v-0.156h-0.156c-0.833,0.624-1.678,1.184-2.536,1.678S178.817,66.004,177.724,66.004z M179.987,63.04
			l3.043-2.186v-0.313l-0.858-10.496h-0.156c-0.677,0.313-1.327,0.729-1.951,1.249c-0.625,0.521-1.223,1.067-1.795,1.639
			c-0.833,0.989-1.502,2.043-2.01,3.16c-0.507,1.119-0.761,2.355-0.761,3.707c0.104,0.702,0.312,1.34,0.625,1.912
			c0.312,0.572,0.715,1.119,1.209,1.639l1.015,0.391L179.987,63.04z M185.216,58.396c1.04-1.561,2.055-3.147,3.043-4.761
			c0.988-1.612,1.769-3.303,2.341-5.072h-3.746l-2.497,0.547v0.624l0.78,8.74L185.216,58.396z"/>
		<path style="fill:#DA3B2B;stroke:#1D2A73;stroke-width:6;stroke-miterlimit:10;" d="M225.015,64.366l-0.702-0.391
			c-1.821-2.132-3.792-4.155-5.912-6.067c-2.12-1.911-4.194-3.882-6.223-5.911l-0.703-0.546l-0.312-1.249
			c1.196-1.612,2.354-3.238,3.473-4.877c1.118-1.639,2.393-3.213,3.824-4.722c1.249-1.118,2.367-2.314,3.356-3.59
			c0.988-1.273,2.002-2.483,3.043-3.628h0.624c0.156,0.052,0.312,0.155,0.468,0.312s0.26,0.313,0.312,0.469v0.702
			c-1.977,2.653-4.104,5.184-6.379,7.589c-2.276,2.406-4.299,5.014-6.067,7.823c2.055,2.186,4.201,4.267,6.438,6.243
			c2.237,1.978,4.292,4.123,6.165,6.438v0.624c-0.052,0.156-0.156,0.313-0.312,0.468c-0.156,0.156-0.313,0.261-0.468,0.313H225.015z
			"/>
		<path style="fill:#DA3B2B;stroke:#1D2A73;stroke-width:6;stroke-miterlimit:10;" d="M243.51,66.004
			c-0.417-0.053-0.8-0.183-1.151-0.39c-0.352-0.209-0.683-0.469-0.995-0.781c-0.78-0.78-1.366-1.639-1.756-2.575
			s-0.585-1.963-0.585-3.082c0.104-1.612,0.494-3.121,1.171-4.526c0.676-1.404,1.625-2.705,2.848-3.901
			c0.728-0.677,1.496-1.301,2.302-1.873c0.806-0.572,1.651-1.015,2.536-1.327v-0.156l-0.468-6.555h-0.546l-2.107,0.313h-3.707
			l-1.327,0.155c-0.156-0.052-0.313-0.155-0.468-0.312c-0.156-0.156-0.26-0.313-0.313-0.469v-0.663l0.313-0.546
			c0.208-0.26,0.481-0.391,0.819-0.391c0.338,0,0.663-0.025,0.976-0.078h3.707l2.575-0.312v-1.483l-0.078-0.078v-4.447
			c0.052-0.208,0.117-0.416,0.195-0.625c0.078-0.208,0.195-0.39,0.351-0.546c0.156-0.156,0.325-0.234,0.507-0.234
			c0.182,0,0.377,0,0.585,0c0.156,0.053,0.312,0.156,0.468,0.313c0.156,0.156,0.259,0.312,0.312,0.468v0.625l-0.156,0.312v4.136
			l0.078,1.405h0.312l1.561-0.234h3.122l1.17,0.156h3.902l3.473-0.313c0.208,0.104,0.377,0.222,0.507,0.352
			c0.13,0.13,0.247,0.299,0.351,0.507v0.625c-0.052,0.155-0.156,0.318-0.312,0.487c-0.156,0.17-0.313,0.28-0.468,0.332l-3.551,0.312
			h-3.902l-1.17-0.156h-3.122l-1.795,0.234v0.78l0.39,5.307h0.468l2.107-0.468h3.824l0.468,0.078c0-0.521,0.026-1.027,0.078-1.522
			c0.052-0.493,0.234-0.949,0.546-1.365c0.156-0.104,0.312-0.169,0.468-0.195c0.156-0.025,0.337-0.039,0.546-0.039
			c0.208,0.104,0.377,0.222,0.507,0.352c0.13,0.13,0.247,0.299,0.351,0.507v0.78c-0.156,0.313-0.234,0.664-0.234,1.054
			c0,0.391,0,0.768,0,1.132c0.937,0.104,1.788,0.403,2.556,0.897c0.767,0.494,1.515,1.054,2.244,1.678
			c1.196,1.457,1.977,3.043,2.341,4.76c0.364,1.717,0.494,3.512,0.39,5.385c-0.208,0.755-0.326,1.535-0.351,2.342
			c-0.026,0.807-0.222,1.521-0.585,2.146c-0.156,0.104-0.312,0.169-0.468,0.195c-0.156,0.025-0.338,0.039-0.546,0.039
			c-0.156-0.053-0.312-0.156-0.468-0.313c-0.156-0.156-0.26-0.312-0.312-0.468l-0.078-0.625c0.104-0.832,0.234-1.658,0.39-2.478
			c0.156-0.819,0.208-1.671,0.156-2.556c0-1.404-0.195-2.705-0.585-3.901s-1.041-2.315-1.951-3.355
			c-0.521-0.364-1.054-0.689-1.6-0.976c-0.546-0.286-1.131-0.481-1.756-0.586c-0.833,2.342-1.886,4.553-3.16,6.634
			c-1.275,2.081-2.719,4.097-4.331,6.048l0.156,1.639c-0.052,0.156-0.156,0.313-0.312,0.468c-0.156,0.156-0.312,0.261-0.468,0.313
			h-0.624l-0.703-0.624v-0.156h-0.156c-0.833,0.624-1.678,1.184-2.536,1.678S244.603,66.004,243.51,66.004z M245.773,63.04
			l3.043-2.186v-0.313l-0.858-10.496h-0.156c-0.677,0.313-1.327,0.729-1.951,1.249c-0.625,0.521-1.223,1.067-1.795,1.639
			c-0.833,0.989-1.502,2.043-2.01,3.16c-0.507,1.119-0.761,2.355-0.761,3.707c0.104,0.702,0.312,1.34,0.625,1.912
			c0.312,0.572,0.715,1.119,1.209,1.639l1.015,0.391L245.773,63.04z M251.001,58.396c1.04-1.561,2.055-3.147,3.043-4.761
			c0.988-1.612,1.769-3.303,2.341-5.072h-3.746l-2.497,0.547v0.624l0.78,8.74L251.001,58.396z"/>
	</g>
	<g>
		<path style="fill:#FFFFFF;" d="M133.155,49.11c-0.885-0.572-1.782-1.093-2.692-1.562c-0.911-0.468-1.808-0.988-2.692-1.561
			c-0.104-0.156-0.169-0.313-0.195-0.468c-0.026-0.156-0.039-0.338-0.039-0.547c0.052-0.156,0.156-0.312,0.312-0.468
			c0.156-0.156,0.312-0.26,0.468-0.313h0.703c0.884,0.469,1.781,0.95,2.692,1.443c0.91,0.495,1.782,1.054,2.614,1.679
			c0.104,0.155,0.169,0.312,0.195,0.468c0.025,0.156,0.039,0.339,0.039,0.546c-0.053,0.156-0.156,0.313-0.312,0.469
			c-0.156,0.156-0.313,0.26-0.468,0.313H133.155z M128.863,65.848l-0.858-0.468c-0.104-0.156-0.169-0.313-0.195-0.469
			c-0.026-0.155-0.039-0.338-0.039-0.546c0.781-1.561,1.586-3.128,2.419-4.702c0.832-1.573,1.69-3.114,2.575-4.623
			c0.156-0.104,0.312-0.169,0.468-0.195c0.156-0.025,0.338-0.039,0.546-0.039c0.156,0.053,0.312,0.156,0.468,0.313
			c0.156,0.155,0.259,0.312,0.312,0.468v0.702c-0.78,1.561-1.587,3.103-2.419,4.624s-1.665,3.063-2.497,4.624L128.863,65.848z
			 M134.481,39.706c-0.833-0.571-1.665-1.183-2.497-1.834c-0.833-0.649-1.691-1.261-2.575-1.833
			c-0.104-0.156-0.169-0.313-0.195-0.469c-0.026-0.156-0.039-0.338-0.039-0.546c0.052-0.156,0.156-0.313,0.312-0.469
			c0.156-0.156,0.313-0.26,0.468-0.312h0.781c0.884,0.572,1.756,1.157,2.614,1.756s1.639,1.34,2.341,2.224v0.624
			c-0.052,0.156-0.156,0.313-0.312,0.469s-0.312,0.26-0.468,0.312L134.481,39.706z M138.032,60.152l-0.858-0.508
			c-0.104-0.155-0.169-0.312-0.195-0.468s-0.039-0.338-0.039-0.546c0.833-1.665,1.665-3.343,2.498-5.034
			c0.832-1.69,1.69-3.368,2.575-5.033h-0.468c-0.677,0.156-1.379,0.234-2.107,0.234c-0.729,0-1.458,0.026-2.185,0.078
			c-0.156-0.052-0.313-0.156-0.468-0.313c-0.156-0.156-0.26-0.313-0.313-0.468V47.47l0.313-0.546c1.04-0.26,2.146-0.416,3.316-0.468
			c1.17-0.053,2.302-0.156,3.395-0.313c0.26-0.469,0.52-0.937,0.78-1.404c0.26-0.469,0.442-0.963,0.546-1.483
			c-0.468-0.104-0.976-0.156-1.521-0.156c-0.546,0-1.08,0-1.6,0l-0.702,0.078c-0.156-0.052-0.312-0.156-0.468-0.312
			c-0.156-0.156-0.26-0.313-0.312-0.469v-0.702l0.78-0.858h3.2l1.795,0.156l1.249-2.614h-1.093l-2.809,0.078l-2.263-0.234
			l-0.858,0.078c-0.156-0.052-0.312-0.156-0.468-0.313s-0.26-0.312-0.312-0.468v-0.624c0.052-0.208,0.168-0.377,0.351-0.508
			c0.182-0.13,0.351-0.247,0.507-0.351l1.482-0.078c0.676,0.155,1.378,0.233,2.107,0.233c0.728,0,1.457,0,2.185,0l2.263-0.078
			c0.312-0.884,0.676-1.729,1.093-2.536c0.416-0.806,0.962-1.573,1.639-2.302c0.156-0.104,0.312-0.169,0.468-0.195
			c0.156-0.025,0.338-0.039,0.546-0.039c0.156,0.053,0.312,0.156,0.468,0.313c0.156,0.156,0.259,0.313,0.312,0.468v0.703
			c-0.417,0.521-0.794,1.066-1.132,1.639c-0.338,0.572-0.611,1.17-0.819,1.795l5.658,0.155l1.171-0.077
			c0.156,0.052,0.312,0.155,0.468,0.312c0.156,0.156,0.259,0.313,0.312,0.469v0.624c-0.053,0.156-0.156,0.313-0.312,0.468
			c-0.156,0.156-0.313,0.261-0.468,0.313l-1.015,0.156h-3.239c-0.521-0.104-1.053-0.156-1.6-0.156s-1.08,0-1.6,0l-0.468,0.078
			c-0.156,0.521-0.351,1.008-0.585,1.463c-0.234,0.456-0.456,0.917-0.663,1.386l0.936,0.155h3.2
			c0.468,0.156,0.981,0.209,1.542,0.156c0.559-0.052,1.046,0.078,1.463,0.391c0.104,0.156,0.169,0.312,0.195,0.468
			c0.025,0.156,0.039,0.339,0.039,0.547c-0.053,0.155-0.156,0.312-0.313,0.468c-0.156,0.156-0.312,0.261-0.468,0.313l-1.99,0.078
			l-1.405-0.156v0.156l1.717,2.419c1.274,0,2.523,0.026,3.746,0.078c1.222,0.053,2.38,0.234,3.473,0.546
			c0.104,0.156,0.169,0.313,0.195,0.469c0.026,0.155,0.039,0.338,0.039,0.546c-0.052,0.156-0.156,0.313-0.312,0.468
			c-0.156,0.156-0.312,0.261-0.468,0.313l-0.78,0.078l-4.136-0.234v0.234c1.145,1.613,2.328,3.199,3.551,4.761
			c1.223,1.561,2.224,3.226,3.004,4.994c-0.052,0.156-0.156,0.312-0.312,0.468s-0.312,0.261-0.468,0.313h-0.624
			c-1.405-1.717-2.79-3.498-4.156-5.346c-1.366-1.847-2.699-3.681-4-5.502l-4.526-0.078l-2.966,0.234
			c-1.041,1.821-2.029,3.694-2.965,5.619s-1.925,3.823-2.965,5.696L138.032,60.152z M140.451,67.721
			c-0.156-0.053-0.312-0.156-0.468-0.312c-0.156-0.156-0.26-0.313-0.312-0.469v-0.702c0.728-1.197,1.586-2.328,2.575-3.395
			c0.988-1.066,1.82-2.211,2.497-3.434h-0.468l-1.482,0.078l-1.249-0.078l-0.703,0.078c-0.156-0.052-0.312-0.156-0.468-0.313
			c-0.156-0.156-0.26-0.313-0.312-0.469v-0.624l0.312-0.546c0.313-0.313,0.676-0.455,1.093-0.43
			c0.416,0.026,0.832,0.039,1.249,0.039l1.483,0.078l2.029-0.39l1.405-2.81c-0.78-0.052-1.561-0.078-2.341-0.078
			s-1.482-0.208-2.107-0.624c-0.104-0.156-0.169-0.313-0.195-0.469s-0.039-0.338-0.039-0.546c0.052-0.156,0.156-0.313,0.312-0.469
			c0.156-0.155,0.312-0.26,0.468-0.312h0.78c1.613,0.156,3.239,0.299,4.877,0.429c1.639,0.131,3.161,0.533,4.565,1.21
			c0.156,0.156,0.234,0.325,0.234,0.507c0,0.183,0,0.378,0,0.586c-0.053,0.155-0.156,0.312-0.313,0.468
			c-0.156,0.156-0.312,0.261-0.468,0.313h-0.625c-0.417-0.104-0.833-0.247-1.249-0.43c-0.417-0.182-0.858-0.272-1.327-0.272
			l-1.249,2.575h4.76c0.416,0.104,0.864,0.143,1.346,0.116c0.481-0.025,0.903,0.117,1.268,0.43c0.156,0.156,0.234,0.338,0.234,0.546
			c0,0.209,0,0.417,0,0.625c-0.052,0.155-0.156,0.312-0.312,0.468s-0.312,0.261-0.468,0.313l-0.624,0.078
			c-0.651-0.208-1.327-0.313-2.029-0.313c-0.702,0-1.392,0-2.068,0v0.156c0.937,0.702,1.795,1.496,2.575,2.38
			c0.78,0.885,1.574,1.743,2.38,2.575v0.156l1.17,0.78c0.104,0.156,0.195,0.338,0.273,0.546s0.091,0.442,0.039,0.703
			c-0.052,0.155-0.156,0.312-0.312,0.468c-0.156,0.156-0.312,0.26-0.468,0.313h-0.702l-0.703-0.469
			c-1.17-1.196-2.354-2.432-3.551-3.707c-1.197-1.273-2.445-2.419-3.746-3.434l-0.078-0.468h-0.39
			c-0.729,1.535-1.678,2.952-2.848,4.253c-1.171,1.301-2.25,2.653-3.239,4.058c-0.156,0.104-0.312,0.169-0.468,0.195
			C140.841,67.708,140.659,67.721,140.451,67.721z M150.596,45.988c-0.312-0.468-0.638-0.91-0.976-1.326
			c-0.338-0.416-0.689-0.833-1.053-1.249h-1.171l-1.17,2.653h1.405l2.185-0.078l0.702,0.078L150.596,45.988z"/>
		<path style="fill:#FFFFFF;" d="M175.724,66.004c-0.417-0.053-0.8-0.183-1.151-0.39c-0.352-0.209-0.683-0.469-0.995-0.781
			c-0.78-0.78-1.366-1.639-1.756-2.575s-0.585-1.963-0.585-3.082c0.104-1.612,0.494-3.121,1.171-4.526
			c0.676-1.404,1.625-2.705,2.848-3.901c0.728-0.677,1.496-1.301,2.302-1.873c0.806-0.572,1.651-1.015,2.536-1.327v-0.156
			l-0.468-6.555h-0.546l-2.107,0.313h-3.707l-1.327,0.155c-0.156-0.052-0.313-0.155-0.468-0.312
			c-0.156-0.156-0.26-0.313-0.313-0.469v-0.663l0.313-0.546c0.208-0.26,0.481-0.391,0.819-0.391c0.338,0,0.663-0.025,0.976-0.078
			h3.707l2.575-0.312v-1.483l-0.078-0.078v-4.447c0.052-0.208,0.117-0.416,0.195-0.625c0.078-0.208,0.195-0.39,0.351-0.546
			c0.156-0.156,0.325-0.234,0.507-0.234c0.182,0,0.377,0,0.585,0c0.156,0.053,0.312,0.156,0.468,0.313
			c0.156,0.156,0.259,0.312,0.312,0.468v0.625l-0.156,0.312v4.136l0.078,1.405h0.312l1.561-0.234h3.122l1.17,0.156h3.902
			l3.473-0.313c0.208,0.104,0.377,0.222,0.507,0.352c0.13,0.13,0.247,0.299,0.351,0.507v0.625c-0.052,0.155-0.156,0.318-0.312,0.487
			c-0.156,0.17-0.313,0.28-0.468,0.332l-3.551,0.312h-3.902l-1.17-0.156h-3.122l-1.795,0.234v0.78l0.39,5.307h0.468l2.107-0.468
			h3.824l0.468,0.078c0-0.521,0.026-1.027,0.078-1.522c0.052-0.493,0.234-0.949,0.546-1.365c0.156-0.104,0.312-0.169,0.468-0.195
			c0.156-0.025,0.337-0.039,0.546-0.039c0.208,0.104,0.377,0.222,0.507,0.352c0.13,0.13,0.247,0.299,0.351,0.507v0.78
			c-0.156,0.313-0.234,0.664-0.234,1.054c0,0.391,0,0.768,0,1.132c0.937,0.104,1.788,0.403,2.556,0.897
			c0.767,0.494,1.515,1.054,2.244,1.678c1.196,1.457,1.977,3.043,2.341,4.76c0.364,1.717,0.494,3.512,0.39,5.385
			c-0.208,0.755-0.326,1.535-0.351,2.342c-0.026,0.807-0.222,1.521-0.585,2.146c-0.156,0.104-0.312,0.169-0.468,0.195
			c-0.156,0.025-0.338,0.039-0.546,0.039c-0.156-0.053-0.312-0.156-0.468-0.313c-0.156-0.156-0.26-0.312-0.312-0.468l-0.078-0.625
			c0.104-0.832,0.234-1.658,0.39-2.478c0.156-0.819,0.208-1.671,0.156-2.556c0-1.404-0.195-2.705-0.585-3.901
			s-1.041-2.315-1.951-3.355c-0.521-0.364-1.054-0.689-1.6-0.976c-0.546-0.286-1.131-0.481-1.756-0.586
			c-0.833,2.342-1.886,4.553-3.16,6.634c-1.275,2.081-2.719,4.097-4.331,6.048l0.156,1.639c-0.052,0.156-0.156,0.313-0.312,0.468
			c-0.156,0.156-0.312,0.261-0.468,0.313h-0.624l-0.703-0.624v-0.156h-0.156c-0.833,0.624-1.678,1.184-2.536,1.678
			S176.817,66.004,175.724,66.004z M177.987,63.04l3.043-2.186v-0.313l-0.858-10.496h-0.156c-0.677,0.313-1.327,0.729-1.951,1.249
			c-0.625,0.521-1.223,1.067-1.795,1.639c-0.833,0.989-1.502,2.043-2.01,3.16c-0.507,1.119-0.761,2.355-0.761,3.707
			c0.104,0.702,0.312,1.34,0.625,1.912c0.312,0.572,0.715,1.119,1.209,1.639l1.015,0.391L177.987,63.04z M183.216,58.396
			c1.04-1.561,2.055-3.147,3.043-4.761c0.988-1.612,1.769-3.303,2.341-5.072h-3.746l-2.497,0.547v0.624l0.78,8.74L183.216,58.396z"
			/>
		<path style="fill:#FFFFFF;" d="M223.015,64.366l-0.702-0.391c-1.821-2.132-3.792-4.155-5.912-6.067
			c-2.12-1.911-4.194-3.882-6.223-5.911l-0.703-0.546l-0.312-1.249c1.196-1.612,2.354-3.238,3.473-4.877
			c1.118-1.639,2.393-3.213,3.824-4.722c1.249-1.118,2.367-2.314,3.356-3.59c0.988-1.273,2.002-2.483,3.043-3.628h0.624
			c0.156,0.052,0.312,0.155,0.468,0.312s0.26,0.313,0.312,0.469v0.702c-1.977,2.653-4.104,5.184-6.379,7.589
			c-2.276,2.406-4.299,5.014-6.067,7.823c2.055,2.186,4.201,4.267,6.438,6.243c2.237,1.978,4.292,4.123,6.165,6.438v0.624
			c-0.052,0.156-0.156,0.313-0.312,0.468c-0.156,0.156-0.313,0.261-0.468,0.313H223.015z"/>
		<path style="fill:#FFFFFF;" d="M241.51,66.004c-0.417-0.053-0.8-0.183-1.151-0.39c-0.352-0.209-0.683-0.469-0.995-0.781
			c-0.78-0.78-1.366-1.639-1.756-2.575s-0.585-1.963-0.585-3.082c0.104-1.612,0.494-3.121,1.171-4.526
			c0.676-1.404,1.625-2.705,2.848-3.901c0.728-0.677,1.496-1.301,2.302-1.873c0.806-0.572,1.651-1.015,2.536-1.327v-0.156
			l-0.468-6.555h-0.546l-2.107,0.313h-3.707l-1.327,0.155c-0.156-0.052-0.313-0.155-0.468-0.312
			c-0.156-0.156-0.26-0.313-0.313-0.469v-0.663l0.313-0.546c0.208-0.26,0.481-0.391,0.819-0.391c0.338,0,0.663-0.025,0.976-0.078
			h3.707l2.575-0.312v-1.483l-0.078-0.078v-4.447c0.052-0.208,0.117-0.416,0.195-0.625c0.078-0.208,0.195-0.39,0.351-0.546
			c0.156-0.156,0.325-0.234,0.507-0.234c0.182,0,0.377,0,0.585,0c0.156,0.053,0.312,0.156,0.468,0.313
			c0.156,0.156,0.259,0.312,0.312,0.468v0.625l-0.156,0.312v4.136l0.078,1.405h0.312l1.561-0.234h3.122l1.17,0.156h3.902
			l3.473-0.313c0.208,0.104,0.377,0.222,0.507,0.352c0.13,0.13,0.247,0.299,0.351,0.507v0.625c-0.052,0.155-0.156,0.318-0.312,0.487
			c-0.156,0.17-0.313,0.28-0.468,0.332l-3.551,0.312h-3.902l-1.17-0.156h-3.122l-1.795,0.234v0.78l0.39,5.307h0.468l2.107-0.468
			h3.824l0.468,0.078c0-0.521,0.026-1.027,0.078-1.522c0.052-0.493,0.234-0.949,0.546-1.365c0.156-0.104,0.312-0.169,0.468-0.195
			c0.156-0.025,0.337-0.039,0.546-0.039c0.208,0.104,0.377,0.222,0.507,0.352c0.13,0.13,0.247,0.299,0.351,0.507v0.78
			c-0.156,0.313-0.234,0.664-0.234,1.054c0,0.391,0,0.768,0,1.132c0.937,0.104,1.788,0.403,2.556,0.897
			c0.767,0.494,1.515,1.054,2.244,1.678c1.196,1.457,1.977,3.043,2.341,4.76c0.364,1.717,0.494,3.512,0.39,5.385
			c-0.208,0.755-0.326,1.535-0.351,2.342c-0.026,0.807-0.222,1.521-0.585,2.146c-0.156,0.104-0.312,0.169-0.468,0.195
			c-0.156,0.025-0.338,0.039-0.546,0.039c-0.156-0.053-0.312-0.156-0.468-0.313c-0.156-0.156-0.26-0.312-0.312-0.468l-0.078-0.625
			c0.104-0.832,0.234-1.658,0.39-2.478c0.156-0.819,0.208-1.671,0.156-2.556c0-1.404-0.195-2.705-0.585-3.901
			s-1.041-2.315-1.951-3.355c-0.521-0.364-1.054-0.689-1.6-0.976c-0.546-0.286-1.131-0.481-1.756-0.586
			c-0.833,2.342-1.886,4.553-3.16,6.634c-1.275,2.081-2.719,4.097-4.331,6.048l0.156,1.639c-0.052,0.156-0.156,0.313-0.312,0.468
			c-0.156,0.156-0.312,0.261-0.468,0.313h-0.624l-0.703-0.624v-0.156h-0.156c-0.833,0.624-1.678,1.184-2.536,1.678
			S242.603,66.004,241.51,66.004z M243.773,63.04l3.043-2.186v-0.313l-0.858-10.496h-0.156c-0.677,0.313-1.327,0.729-1.951,1.249
			c-0.625,0.521-1.223,1.067-1.795,1.639c-0.833,0.989-1.502,2.043-2.01,3.16c-0.507,1.119-0.761,2.355-0.761,3.707
			c0.104,0.702,0.312,1.34,0.625,1.912c0.312,0.572,0.715,1.119,1.209,1.639l1.015,0.391L243.773,63.04z M249.001,58.396
			c1.04-1.561,2.055-3.147,3.043-4.761c0.988-1.612,1.769-3.303,2.341-5.072h-3.746l-2.497,0.547v0.624l0.78,8.74L249.001,58.396z"
			/>
	</g>
</g>
<g>
	<path style="fill:#9389C0;stroke:#645BA6;stroke-width:3.3265;stroke-miterlimit:10;" d="M1499.481,259.948
		c0,12.287-9.961,22.25-22.25,22.25c-12.287,0-22.25-9.963-22.25-22.25c0-12.289,9.963-15.049,22.25-15.049
		C1489.521,244.899,1499.481,247.659,1499.481,259.948z"/>
	<g>
		<path style="fill:#FFFFFF;" d="M1479.611,270.421c-1.31,1.278-3.45,1.278-4.76,0l-13.252-12.947
			c-1.31-1.278-0.883-2.324,0.946-2.324h29.371c1.829,0,2.256,1.046,0.946,2.324L1479.611,270.421z"/>
		<path style="fill:none;stroke:#514B9C;stroke-width:3.3265;stroke-miterlimit:10;" d="M1479.611,270.421
			c-1.31,1.278-3.45,1.278-4.76,0l-13.252-12.947c-1.31-1.278-0.883-2.324,0.946-2.324h29.371c1.829,0,2.256,1.046,0.946,2.324
			L1479.611,270.421z"/>
	</g>
</g>
</svg>
